<svg xmlns="http://www.w3.org/2000/svg" width="40.694" height="51.469" viewBox="0 0 40.694 51.469">
  <g id="Grupo_1" data-name="Grupo 1" transform="translate(-313.499 -258.5)">
    <path id="Sustracción_1" data-name="Sustracción 1" d="M33.164,51.469h-.171l-4.08-4.107L24.3,51.469h-.178l-3.942-4.107-4.406,4.107H15.6L11.49,47.362,7.464,51.469H7.288L2.844,47.362,0,51.109V18.21H0c0-.028,0-.056,0-.084a16.337,16.337,0,0,1,.413-3.651,16.622,16.622,0,0,1,1.184-3.4A17.607,17.607,0,0,1,3.472,8,18.906,18.906,0,0,1,5.956,5.312,20.176,20.176,0,0,1,8.967,3.1a21.228,21.228,0,0,1,3.457-1.672A22.1,22.1,0,0,1,16.244.369a23.016,23.016,0,0,1,8.2,0A22.1,22.1,0,0,1,28.27,1.426,21.232,21.232,0,0,1,31.727,3.1a20.174,20.174,0,0,1,3.011,2.214A18.908,18.908,0,0,1,37.221,8,17.616,17.616,0,0,1,39.1,11.074a16.631,16.631,0,0,1,1.184,3.4,16.345,16.345,0,0,1,.413,3.651c0,.028,0,.057,0,.085V51.452l-3.4-4.089-4.129,4.107Z" transform="translate(313.499 258.5)" fill="#ff424c"/>
    <ellipse id="Elipse_2" data-name="Elipse 2" cx="4.069" cy="4.07" rx="4.069" ry="4.07" transform="translate(332.983 273.358)" fill="#fff"/>
    <ellipse id="Elipse_3" data-name="Elipse 3" cx="4.069" cy="4.07" rx="4.069" ry="4.07" transform="translate(324.316 272.951)" fill="#fff"/>
  </g>
</svg>
